{
	"asset":{
		"generator":"Khronos glTF Blender I/O v4.1.63",
		"version":"2.0"
	},
	"scene":0,
	"scenes":[
		{
			"name":"Scene",
			"nodes":[
				0,
				1
			]
		}
	],
	"nodes":[
		{
			"mesh":0,
			"name":"appear v1",
			"rotation":[
				0.7071068286895752,
				0,
				0,
				0.7071068286895752
			]
		},
		{
			"mesh":1,
			"name":"Plane",
			"scale":[
				13.06474781036377,
				3.6016440391540527,
				1
			],
			"translation":[
				-0.16817393898963928,
				0,
				0
			]
		}
	],
	"meshes":[
		{
			"name":"appear v1",
			"primitives":[
				{
					"attributes":{
						"POSITION":0,
						"NORMAL":1,
						"TEXCOORD_0":2
					},
					"indices":3
				}
			]
		},
		{
			"name":"Plane",
			"primitives":[
				{
					"attributes":{
						"POSITION":4,
						"NORMAL":5,
						"TEXCOORD_0":6
					},
					"indices":7
				}
			]
		}
	],
	"accessors":[
		{
			"bufferView":0,
			"componentType":5126,
			"count":1682,
			"max":[
				7.19772481918335,
				0.10000000149011612,
				1.3357599973678589
			],
			"min":[
				-0.00026500000967644155,
				0,
				0
			],
			"type":"VEC3"
		},
		{
			"bufferView":1,
			"componentType":5126,
			"count":1682,
			"type":"VEC3"
		},
		{
			"bufferView":2,
			"componentType":5126,
			"count":1682,
			"type":"VEC2"
		},
		{
			"bufferView":3,
			"componentType":5123,
			"count":3750,
			"type":"SCALAR"
		},
		{
			"bufferView":4,
			"componentType":5126,
			"count":4,
			"max":[
				1.4850000143051147,
				1.4850000143051147,
				0
			],
			"min":[
				-1.4850000143051147,
				-1.4850000143051147,
				0
			],
			"type":"VEC3"
		},
		{
			"bufferView":5,
			"componentType":5126,
			"count":4,
			"type":"VEC3"
		},
		{
			"bufferView":6,
			"componentType":5126,
			"count":4,
			"type":"VEC2"
		},
		{
			"bufferView":7,
			"componentType":5123,
			"count":6,
			"type":"SCALAR"
		}
	],
	"bufferViews":[
		{
			"buffer":0,
			"byteLength":20184,
			"byteOffset":0,
			"target":34962
		},
		{
			"buffer":0,
			"byteLength":20184,
			"byteOffset":20184,
			"target":34962
		},
		{
			"buffer":0,
			"byteLength":13456,
			"byteOffset":40368,
			"target":34962
		},
		{
			"buffer":0,
			"byteLength":7500,
			"byteOffset":53824,
			"target":34963
		},
		{
			"buffer":0,
			"byteLength":48,
			"byteOffset":61324,
			"target":34962
		},
		{
			"buffer":0,
			"byteLength":48,
			"byteOffset":61372,
			"target":34962
		},
		{
			"buffer":0,
			"byteLength":32,
			"byteOffset":61420,
			"target":34962
		},
		{
			"buffer":0,
			"byteLength":12,
			"byteOffset":61452,
			"target":34963
		}
	],
	"buffers":[
		{
			"byteLength":61464,
			"uri":"dbz.bin"
		}
	]
}
